<svg width="26" height="20" viewBox="0 0 26 20" fill="none" xmlns="http://www.w3.org/2000/svg">
<path fill-rule="evenodd" clip-rule="evenodd" d="M12.9679 12.4049L13.1024 12.405L13.4032 12.406C15.7029 12.4211 20.9583 12.6534 20.9583 16.2155C20.9583 19.7542 15.8861 19.9849 13.4391 20L12.5325 20C10.2327 19.9849 4.97626 19.7528 4.97626 16.1952C4.97626 12.6521 10.2327 12.421 12.5325 12.406L12.8334 12.405C12.88 12.4049 12.9249 12.4049 12.9679 12.4049ZM12.9679 14.1917C10.1376 14.1917 6.76303 14.5395 6.76303 16.1952C6.76303 17.8135 9.93621 18.1918 12.7092 18.2133L12.9679 18.2143C15.7981 18.2143 19.1715 17.8677 19.1715 16.2155C19.1715 14.5431 15.7981 14.1917 12.9679 14.1917ZM22.442 11.9215C25.3282 12.3539 25.9345 13.7095 25.9345 14.7708C25.9345 15.4188 25.6796 16.6017 23.9762 17.2509C23.8714 17.2902 23.7642 17.3092 23.6582 17.3092C23.2985 17.3092 22.959 17.0901 22.8232 16.7339C22.6469 16.2729 22.8792 15.7559 23.3402 15.5808C24.1478 15.2735 24.1478 14.934 24.1478 14.7708C24.1478 14.2491 23.4843 13.8846 22.1764 13.6892C21.6892 13.6154 21.3521 13.1616 21.4247 12.672C21.4974 12.1836 21.9501 11.8584 22.442 11.9215ZM4.5098 12.672C4.58246 13.1616 4.24535 13.6154 3.75816 13.6892C2.45025 13.8846 1.78677 14.2491 1.78677 14.7708C1.78677 14.934 1.78677 15.2723 2.59557 15.5808C3.05656 15.7559 3.28884 16.2729 3.11255 16.7339C2.97675 17.0901 2.63727 17.3092 2.27753 17.3092C2.17152 17.3092 2.06431 17.2902 1.95949 17.2509C0.254912 16.6005 0 15.4176 0 14.7708C0 13.7107 0.606309 12.3539 3.49372 11.9215C3.98568 11.8596 4.43594 12.1836 4.5098 12.672ZM12.9679 0C15.9696 0 18.4104 2.44191 18.4104 5.44249C18.4104 8.44306 15.9696 10.885 12.9679 10.885H12.9357C11.4825 10.8802 10.121 10.3108 9.1013 9.28165C8.07928 8.25366 7.52061 6.88858 7.52652 5.43891C7.52652 2.44191 9.96729 0 12.9679 0ZM12.9679 1.78677C10.9524 1.78677 9.31331 3.42702 9.31331 5.44249C9.30976 6.41925 9.68379 7.33288 10.3687 8.02258C11.0536 8.71227 11.9661 9.09463 12.9381 9.09821L12.9679 9.99159V9.09821C14.9833 9.09821 16.6236 7.45915 16.6236 5.44249C16.6236 3.42702 14.9833 1.78677 12.9679 1.78677ZM20.3401 1.16676C22.4341 1.51101 23.9553 3.30254 23.9553 5.42641C23.9505 7.56457 22.3531 9.39898 20.2388 9.69558C20.1971 9.70154 20.1554 9.70392 20.1149 9.70392C19.6766 9.70392 19.2942 9.38111 19.2311 8.93442C19.1632 8.44485 19.5027 7.99339 19.9922 7.92549C21.2311 7.75158 22.1661 6.67714 22.1685 5.42402C22.1685 4.18163 21.2775 3.13101 20.0494 2.9297C19.5634 2.84989 19.2335 2.3901 19.3133 1.9029C19.3943 1.41571 19.8505 1.08933 20.3401 1.16676ZM6.62247 1.9029C6.70228 2.3901 6.37232 2.84989 5.88632 2.9297C4.65822 3.13101 3.76722 4.18163 3.76722 5.42641C3.7696 6.67714 4.70467 7.75277 5.9423 7.92549C6.43188 7.99339 6.77136 8.44485 6.70347 8.93442C6.64033 9.38111 6.25797 9.70392 5.81961 9.70392C5.77911 9.70392 5.73742 9.70154 5.69573 9.69558C3.58139 9.39898 1.98522 7.56457 1.98045 5.42879C1.98045 3.30254 3.50158 1.51101 5.59567 1.16676C6.09716 1.08814 6.54147 1.4181 6.62247 1.9029Z" fill="#245D51"/>
</svg>
