<svg width="25" height="25" viewBox="0 0 25 25" fill="none" xmlns="http://www.w3.org/2000/svg">
<path fill-rule="evenodd" clip-rule="evenodd" d="M9.84625 15.7316L9.99513 15.7317L10.3251 15.7326C13.1275 15.7477 19.6925 16.0051 19.6925 20.3807C19.6925 24.4374 14.3007 24.9796 10.1068 25L9.36741 24.9997C6.56498 24.9845 0 24.7272 0 20.3529C0 16.2103 5.61875 15.7316 9.84625 15.7316ZM9.84625 17.6261C4.5575 17.6261 1.875 18.5443 1.875 20.3529C1.875 22.1791 4.5575 23.1062 9.84625 23.1062C15.135 23.1062 17.8175 22.188 17.8175 20.3807C17.8175 18.5519 15.135 17.6261 9.84625 17.6261ZM21.5051 7.47518C22.0226 7.47518 22.4426 7.89954 22.4426 8.42241L22.4425 10.0066L24.0625 10.0076C24.58 10.0076 25 10.4319 25 10.9548C25 11.4777 24.58 11.902 24.0625 11.902L22.4425 11.901L22.4426 13.4882C22.4426 14.0111 22.0226 14.4354 21.5051 14.4354C20.9876 14.4354 20.5676 14.0111 20.5676 13.4882L20.5675 11.901L18.95 11.902C18.4325 11.902 18.0125 11.4777 18.0125 10.9548C18.0125 10.4319 18.4325 10.0076 18.95 10.0076L20.5675 10.0066L20.5676 8.42241C20.5676 7.89954 20.9876 7.47518 21.5051 7.47518ZM9.84625 0C13.5125 0 16.4937 3.01346 16.4937 6.71651C16.4937 10.4196 13.5125 13.433 9.84625 13.433H9.8075C8.03375 13.4267 6.37125 12.7232 5.125 11.4552C3.8775 10.1859 3.19375 8.5011 3.19996 6.71272C3.19996 3.01346 6.18125 0 9.84625 0ZM9.84625 1.89447C7.21625 1.89447 5.07496 4.05794 5.07496 6.71651C5.07 8.00348 5.56 9.20963 6.45375 10.1202C7.34875 11.0296 8.54125 11.5335 9.81125 11.5386L9.84625 12.4744V11.5386C12.4775 11.5386 14.6187 9.37508 14.6187 6.71651C14.6187 4.05794 12.4775 1.89447 9.84625 1.89447Z" fill="white"/>
</svg>
