<svg width="30" height="30" viewBox="0 0 30 30" fill="none" xmlns="http://www.w3.org/2000/svg">
<path fill-rule="evenodd" clip-rule="evenodd" d="M28.9235 19.3542C29.5433 19.4013 30.0071 19.9499 29.9605 20.5776L29.6754 24.3906C29.4398 27.5365 26.818 30 23.7039 30H6.2952C3.18114 30 0.55933 27.5365 0.323712 24.3906L0.0385693 20.5776C-0.00795397 19.9499 0.457279 19.4013 1.07709 19.3542C1.6999 19.3314 2.23717 19.7766 2.28519 20.4058L2.56883 24.2174C2.71591 26.1809 4.35173 27.7204 6.2952 27.7204H23.7039C25.6474 27.7204 27.2847 26.1809 27.4303 24.2174L27.7154 20.4058C27.7634 19.7766 28.3142 19.3298 28.9235 19.3542ZM16.9358 0C19.1914 0 21.06 1.71164 21.3414 3.91947L24.2972 3.9208C27.4427 3.9208 30 6.51805 30 9.71256V14.939C30 15.3448 29.7869 15.7186 29.4432 15.9223C25.7389 18.1191 21.0464 19.4004 16.1249 19.5713L16.1254 22.3047C16.1254 22.9339 15.6212 23.4446 14.9999 23.4446C14.3785 23.4446 13.8743 22.9339 13.8743 22.3047L13.8733 19.5717C8.95675 19.4023 4.26387 18.1207 0.556778 15.9223C0.211606 15.7186 0 15.3448 0 14.939V9.69737C0 6.51197 2.56478 3.9208 5.71786 3.9208L8.65829 3.91947C8.93973 1.71164 10.8083 0 13.0639 0H16.9358ZM24.2972 6.20042H5.71786C3.8059 6.20042 2.25113 7.7688 2.25113 9.69737V14.2749C5.81348 16.235 10.3045 17.3092 14.979 17.3113L14.9999 17.3093L15.0165 17.3099L15.7311 17.3024C20.152 17.1957 24.3693 16.1336 27.7489 14.2749V9.71256C27.7489 7.77488 26.2016 6.20042 24.2972 6.20042ZM16.9358 2.27962H13.0639C12.0534 2.27962 11.2003 2.97608 10.9484 3.91986H19.0514C18.7994 2.97608 17.9463 2.27962 16.9358 2.27962Z" fill="#075F33"/>
</svg>
