<svg width="34" height="30" viewBox="0 0 34 30" fill="none" xmlns="http://www.w3.org/2000/svg">
<path d="M22.4229 0.597167C23.4056 0.988307 24.1005 1.69333 24.7234 2.72692L24.9287 3.08364L25.6901 4.54369L25.7151 4.58446L25.7379 4.61995L25.8025 4.70836C26.1495 5.08636 26.73 5.31472 27.1132 5.31472C30.6234 5.31472 33.4905 8.07144 33.6662 11.537L33.6748 11.8746V21.6318C33.6748 26.1308 30.1218 29.8021 25.6695 29.9923L25.3066 30H8.36818C3.86812 30 0.19779 26.4475 0.00773124 21.9948L0 21.6318V11.8746C0 8.25216 2.93809 5.31472 6.56153 5.31472C6.94336 5.31472 7.52476 5.08603 7.87222 4.70836L7.88419 4.69425L7.89917 4.67462L7.98576 4.5418L8.74503 3.0841C9.42181 1.85409 10.158 1.03184 11.2505 0.597009C13.2525 -0.199029 20.4225 -0.199029 22.4229 0.597167ZM12.1841 2.94373C11.8114 3.0921 11.4739 3.43552 11.1137 4.03088L10.9578 4.30162L10.3098 5.55449L10.1503 5.84313C10.0172 6.06459 9.88398 6.25153 9.73192 6.41722C8.95669 7.25986 7.84364 7.74655 6.85419 7.82807L6.56153 7.84032L6.28523 7.84963C4.27665 7.98545 2.67076 9.59095 2.53492 11.5984L2.52561 11.8746V21.6318C2.52561 24.7506 4.96996 27.2993 8.04761 27.4657L8.36818 27.4744H25.3066C28.4247 27.4744 30.974 25.0291 31.1405 21.9523L31.1491 21.6318V11.8746C31.1491 9.73995 29.4894 7.99162 27.3895 7.84963L27.1132 7.84032L26.8201 7.82807C25.8291 7.74653 24.7161 7.25971 23.9418 6.4161C23.7918 6.2526 23.6593 6.06699 23.527 5.8474L23.4951 5.79297L23.4572 5.72536L23.2618 5.35873L22.7164 4.30209C22.3481 3.63346 22.0109 3.22483 21.6468 3.01947L21.489 2.94373L21.288 2.87695C19.5552 2.38717 13.5278 2.40944 12.1841 2.94373ZM16.8369 10.4378C20.4909 10.4378 23.4523 13.3992 23.4523 17.0532C23.4523 20.7073 20.4909 23.6686 16.8369 23.6686C13.1828 23.6686 10.2215 20.7073 10.2215 17.0532C10.2215 13.3992 13.1828 10.4378 16.8369 10.4378ZM16.8369 12.9634C14.5777 12.9634 12.7471 14.794 12.7471 17.0532C12.7471 19.3125 14.5777 21.143 16.8369 21.143C19.0961 21.143 20.9267 19.3125 20.9267 17.0532C20.9267 14.794 19.0961 12.9634 16.8369 12.9634ZM26.1052 9.26089C27.0351 9.26089 27.7889 10.0147 27.7889 10.9446C27.7889 11.8081 27.1389 12.5198 26.3015 12.617L26.1052 12.6284C25.1601 12.6284 24.4063 11.8745 24.4063 10.9446C24.4063 10.0812 25.0563 9.36948 25.8937 9.27222L26.1052 9.26089Z" fill="#245D51"/>
</svg>
