<svg width="24" height="24" viewBox="0 0 24 24" fill="none" xmlns="http://www.w3.org/2000/svg">
<path fill-rule="evenodd" clip-rule="evenodd" d="M11.705 0C14.6742 0 17.0951 2.40345 17.1275 5.36868L17.3905 5.36991C20.7049 5.36991 23.4001 8.06392 23.4001 11.3759V17.9952C23.4001 21.306 20.7049 24 17.3905 24H6.00963C2.69641 24 0 21.306 0 17.9952V11.3759C0 8.06392 2.69641 5.36991 6.00963 5.36991L6.25443 5.36883L6.26204 5.13545C6.3374 3.77409 6.89808 2.52521 7.86016 1.57321C8.88977 0.552003 10.2722 0.0420002 11.705 0ZM17.3905 7.16992L17.1277 7.16884L17.1278 9.06725C17.1278 9.56405 16.7246 9.96725 16.2278 9.96725C15.731 9.96725 15.3278 9.56405 15.3278 9.06725L15.3277 7.16884H8.05324L8.05336 9.06725C8.05336 9.56405 7.65016 9.96725 7.15336 9.96725C6.65656 9.96725 6.25335 9.56405 6.25335 9.06725L6.25323 7.16884L6.00963 7.16992C3.68882 7.16992 1.80001 9.05633 1.80001 11.3759V17.9952C1.80001 20.3136 3.68882 22.2 6.00963 22.2H17.3905C19.7113 22.2 21.6001 20.3136 21.6001 17.9952V11.3759C21.6001 9.05633 19.7113 7.16992 17.3905 7.16992ZM11.7014 1.80001C10.7282 1.83361 9.81617 2.16961 9.12737 2.85121C8.44856 3.52411 8.0681 4.41611 8.05376 5.36871L15.3253 5.36883L15.3216 5.21598C15.2112 3.31418 13.6304 1.80001 11.7014 1.80001Z" fill="#245D51"/>
</svg>
