<svg width="25" height="25" viewBox="0 0 25 25" fill="none" xmlns="http://www.w3.org/2000/svg">
<path fill-rule="evenodd" clip-rule="evenodd" d="M17.9488 0C22.1663 0 25 2.96046 25 7.36628V17.6337C25 22.0395 22.1663 25 17.9488 25H7.05116C2.83372 25 0 22.0395 0 17.6337V7.36628C0 2.96046 2.83372 0 7.05116 0H17.9488ZM17.9488 1.74419H7.05116C3.82791 1.74419 1.74419 3.95 1.74419 7.36628V17.6337C1.74419 21.05 3.82791 23.2558 7.05116 23.2558H17.9488C21.1733 23.2558 23.2558 21.05 23.2558 17.6337V7.36628C23.2558 3.95 21.1733 1.74419 17.9488 1.74419ZM7.11756 9.53779C7.59895 9.53779 7.98965 9.92849 7.98965 10.4099V18.3866C7.98965 18.868 7.59895 19.2587 7.11756 19.2587C6.63616 19.2587 6.24546 18.868 6.24546 18.3866V10.4099C6.24546 9.92849 6.63616 9.53779 7.11756 9.53779ZM12.5443 5.71919C13.0257 5.71919 13.4164 6.10988 13.4164 6.59128V18.3855C13.4164 18.8669 13.0257 19.2576 12.5443 19.2576C12.0629 19.2576 11.6722 18.8669 11.6722 18.3855V6.59128C11.6722 6.10988 12.0629 5.71919 12.5443 5.71919ZM17.8819 13.7529C18.3633 13.7529 18.754 14.1436 18.754 14.625V18.3855C18.754 18.8669 18.3633 19.2576 17.8819 19.2576C17.4005 19.2576 17.0098 18.8669 17.0098 18.3855V14.625C17.0098 14.1436 17.4005 13.7529 17.8819 13.7529Z" fill="white"/>
</svg>
