<svg width="20" height="20" viewBox="0 0 20 20" fill="none" xmlns="http://www.w3.org/2000/svg">
<path d="M10.0001 6.6665C9.77907 6.6665 9.56711 6.7543 9.41083 6.91058C9.25455 7.06686 9.16675 7.27882 9.16675 7.49984V10.8332C9.16675 11.0542 9.25455 11.2661 9.41083 11.4224C9.56711 11.5787 9.77907 11.6665 10.0001 11.6665C10.2211 11.6665 10.4331 11.5787 10.5893 11.4224C10.7456 11.2661 10.8334 11.0542 10.8334 10.8332V7.49984C10.8334 7.27882 10.7456 7.06686 10.5893 6.91058C10.4331 6.7543 10.2211 6.6665 10.0001 6.6665ZM6.66675 9.1665C6.44573 9.1665 6.23377 9.2543 6.07749 9.41058C5.92121 9.56686 5.83341 9.77882 5.83341 9.99984V10.8332C5.83341 11.0542 5.92121 11.2661 6.07749 11.4224C6.23377 11.5787 6.44573 11.6665 6.66675 11.6665C6.88776 11.6665 7.09972 11.5787 7.256 11.4224C7.41228 11.2661 7.50008 11.0542 7.50008 10.8332V9.99984C7.50008 9.77882 7.41228 9.56686 7.256 9.41058C7.09972 9.2543 6.88776 9.1665 6.66675 9.1665ZM15.8334 1.6665H4.16675C3.50371 1.6665 2.86782 1.9299 2.39898 2.39874C1.93014 2.86758 1.66675 3.50346 1.66675 4.1665V12.4998C1.66675 13.1629 1.93014 13.7988 2.39898 14.2676C2.86782 14.7364 3.50371 14.9998 4.16675 14.9998H13.8251L16.9084 18.0915C16.9863 18.1687 17.0786 18.2298 17.1802 18.2713C17.2817 18.3128 17.3904 18.3338 17.5001 18.3332C17.6094 18.336 17.7178 18.3132 17.8167 18.2665C17.9689 18.204 18.0992 18.0978 18.1911 17.9614C18.2831 17.825 18.3326 17.6644 18.3334 17.4998V4.1665C18.3334 3.50346 18.07 2.86758 17.6012 2.39874C17.1323 1.9299 16.4965 1.6665 15.8334 1.6665ZM16.6667 15.4915L14.7584 13.5748C14.6805 13.4976 14.5882 13.4365 14.4867 13.395C14.3851 13.3536 14.2764 13.3325 14.1667 13.3332H4.16675C3.94573 13.3332 3.73377 13.2454 3.57749 13.0891C3.42121 12.9328 3.33341 12.7209 3.33341 12.4998V4.1665C3.33341 3.94549 3.42121 3.73353 3.57749 3.57725C3.73377 3.42097 3.94573 3.33317 4.16675 3.33317H15.8334C16.0544 3.33317 16.2664 3.42097 16.4227 3.57725C16.579 3.73353 16.6667 3.94549 16.6667 4.1665V15.4915ZM13.3334 4.99984C13.1124 4.99984 12.9004 5.08763 12.7442 5.24392C12.5879 5.4002 12.5001 5.61216 12.5001 5.83317V10.8332C12.5001 11.0542 12.5879 11.2661 12.7442 11.4224C12.9004 11.5787 13.1124 11.6665 13.3334 11.6665C13.5544 11.6665 13.7664 11.5787 13.9227 11.4224C14.079 11.2661 14.1667 11.0542 14.1667 10.8332V5.83317C14.1667 5.61216 14.079 5.4002 13.9227 5.24392C13.7664 5.08763 13.5544 4.99984 13.3334 4.99984Z" fill="#245D51"/>
</svg>
