<svg width="25" height="25" viewBox="0 0 25 25" fill="none" xmlns="http://www.w3.org/2000/svg">
<path fill-rule="evenodd" clip-rule="evenodd" d="M17.7663 0C22.0933 0 25 2.70342 25 6.72652V18.2735C25 22.3317 22.1828 24.9711 17.8227 24.9962L7.23507 25C2.90806 25 0 22.2966 0 18.2735V6.72652C0 2.667 2.81723 0.02888 7.17726 0.0050226L17.7649 0H17.7663ZM17.7663 1.88348L7.18415 1.8885C3.98018 1.90608 2.06441 3.71421 2.06441 6.72652V18.2735C2.06441 21.3059 3.99807 23.1165 7.23369 23.1165L17.8159 23.1128C21.0198 23.0952 22.9356 21.2845 22.9356 18.2735V6.72652C22.9356 3.69412 21.0033 1.88348 17.7663 1.88348ZM17.5008 16.9183C18.0706 16.9183 18.533 17.3402 18.533 17.86C18.533 18.3798 18.0706 18.8017 17.5008 18.8017H7.56413C6.99436 18.8017 6.53193 18.3798 6.53193 17.86C6.53193 17.3402 6.99436 16.9183 7.56413 16.9183H17.5008ZM17.5008 11.6615C18.0706 11.6615 18.533 12.0834 18.533 12.6032C18.533 13.1231 18.0706 13.545 17.5008 13.545H7.56413C6.99436 13.545 6.53193 13.1231 6.53193 12.6032C6.53193 12.0834 6.99436 11.6615 7.56413 11.6615H17.5008ZM11.3554 6.41688C11.9251 6.41688 12.3876 6.83877 12.3876 7.35861C12.3876 7.87845 11.9251 8.30035 11.3554 8.30035H7.56372C6.99394 8.30035 6.53152 7.87845 6.53152 7.35861C6.53152 6.83877 6.99394 6.41688 7.56372 6.41688H11.3554Z" fill="white"/>
</svg>
