<svg width="18" height="20" viewBox="0 0 18 20" fill="none" xmlns="http://www.w3.org/2000/svg">
<path fill-rule="evenodd" clip-rule="evenodd" d="M12.7917 0C15.9072 0 18 2.13344 18 5.30834V14.4208C18 17.6235 15.9716 19.7064 12.8324 19.7262L5.20925 19.7292C2.09381 19.7292 0 17.5957 0 14.4208V5.30834C0 2.10471 2.02841 0.0227911 5.16763 0.00396367L12.7908 0H12.7917ZM12.7917 1.48637L5.17259 1.49034C2.86573 1.50421 1.48637 2.93113 1.48637 5.30834V14.4208C1.48637 16.8139 2.87861 18.2428 5.20826 18.2428L12.8274 18.2398C15.1343 18.2259 16.5136 16.797 16.5136 14.4208V5.30834C16.5136 2.91528 15.1224 1.48637 12.7917 1.48637ZM12.6006 13.3513C13.0108 13.3513 13.3438 13.6843 13.3438 14.0945C13.3438 14.5047 13.0108 14.8377 12.6006 14.8377H5.44618C5.03594 14.8377 4.70299 14.5047 4.70299 14.0945C4.70299 13.6843 5.03594 13.3513 5.44618 13.3513H12.6006ZM12.6006 9.20284C13.0108 9.20284 13.3438 9.53579 13.3438 9.94603C13.3438 10.3563 13.0108 10.6892 12.6006 10.6892H5.44618C5.03594 10.6892 4.70299 10.3563 4.70299 9.94603C4.70299 9.53579 5.03594 9.20284 5.44618 9.20284H12.6006ZM8.17586 5.06398C8.58609 5.06398 8.91904 5.39693 8.91904 5.80717C8.91904 6.21741 8.58609 6.55036 8.17586 6.55036H5.44588C5.03564 6.55036 4.70269 6.21741 4.70269 5.80717C4.70269 5.39693 5.03564 5.06398 5.44588 5.06398H8.17586Z" fill="#245D51"/>
</svg>
