<svg width="28" height="30" viewBox="0 0 28 30" fill="none" xmlns="http://www.w3.org/2000/svg">
<path fill-rule="evenodd" clip-rule="evenodd" d="M19.2467 0C19.8243 0 20.2932 0.468835 20.2932 1.04651L20.2938 2.22949C22.3312 2.36917 24.0232 3.06703 25.2208 4.2671C26.5283 5.58011 27.2162 7.46801 27.2092 9.73265V22.4624C27.2092 27.1116 24.2566 30 19.5055 30H7.70369C2.95254 30 0 27.0712 0 22.3563V9.72986C0 5.34457 2.63309 2.52967 6.92744 2.22997L6.92829 1.04651C6.92829 0.468835 7.39713 0 7.9748 0C8.55247 0 9.02131 0.468835 9.02131 1.04651L9.02089 2.20325H18.1995L18.2002 1.04651C18.2002 0.468835 18.669 0 19.2467 0ZM25.1162 12.4241H2.09301V22.3563C2.09301 25.9368 4.08556 27.907 7.70369 27.907H19.5055C23.1236 27.907 25.1162 25.973 25.1162 22.4624L25.1162 12.4241ZM19.8155 21.204C20.3932 21.204 20.862 21.6729 20.862 22.2505C20.862 22.8282 20.3932 23.2971 19.8155 23.2971C19.2379 23.2971 18.7635 22.8282 18.7635 22.2505C18.7635 21.6729 19.2253 21.204 19.803 21.204H19.8155ZM13.6237 21.204C14.2014 21.204 14.6702 21.6729 14.6702 22.2505C14.6702 22.8282 14.2014 23.2971 13.6237 23.2971C13.046 23.2971 12.5716 22.8282 12.5716 22.2505C12.5716 21.6729 13.0335 21.204 13.6111 21.204H13.6237ZM7.4189 21.204C7.99657 21.204 8.4654 21.6729 8.4654 22.2505C8.4654 22.8282 7.99657 23.2971 7.4189 23.2971C6.84122 23.2971 6.36541 22.8282 6.36541 22.2505C6.36541 21.6729 6.82867 21.204 7.40634 21.204H7.4189ZM19.8155 15.7808C20.3932 15.7808 20.862 16.2496 20.862 16.8273C20.862 17.4049 20.3932 17.8738 19.8155 17.8738C19.2379 17.8738 18.7635 17.4049 18.7635 16.8273C18.7635 16.2496 19.2253 15.7808 19.803 15.7808H19.8155ZM13.6237 15.7808C14.2014 15.7808 14.6702 16.2496 14.6702 16.8273C14.6702 17.4049 14.2014 17.8738 13.6237 17.8738C13.046 17.8738 12.5716 17.4049 12.5716 16.8273C12.5716 16.2496 13.0335 15.7808 13.6111 15.7808H13.6237ZM7.4189 15.7808C7.99657 15.7808 8.4654 16.2496 8.4654 16.8273C8.4654 17.4049 7.99657 17.8738 7.4189 17.8738C6.84122 17.8738 6.36541 17.4049 6.36541 16.8273C6.36541 16.2496 6.82867 15.7808 7.40634 15.7808H7.4189ZM18.1995 4.29626H9.02089L9.02131 5.63858C9.02131 6.21625 8.55247 6.68508 7.9748 6.68508C7.39713 6.68508 6.92829 6.21625 6.92829 5.63858L6.92755 4.32794C3.80166 4.59053 2.09301 6.48535 2.09301 9.72986V10.3311H25.1162L25.1162 9.72986C25.1217 8.00661 24.6585 6.66709 23.739 5.74616C22.9318 4.93659 21.7518 4.4531 20.2944 4.32861L20.2932 5.63858C20.2932 6.21625 19.8243 6.68508 19.2467 6.68508C18.669 6.68508 18.2002 6.21625 18.2002 5.63858L18.1995 4.29626Z" fill="#A671F8"/>
</svg>
