<svg width="30" height="30" viewBox="0 0 30 30" fill="none" xmlns="http://www.w3.org/2000/svg">
<path fill-rule="evenodd" clip-rule="evenodd" d="M13.9805 0.0536125C14.5902 0.0536125 15.0851 0.548497 15.0851 1.15826C15.0851 1.76803 14.5902 2.26292 13.9805 2.26292H8.47342C4.66752 2.26292 2.2093 4.8699 2.2093 8.90409V21.1495C2.2093 25.1837 4.66752 27.7907 8.47342 27.7907H21.47C25.2759 27.7907 27.7356 25.1837 27.7356 21.1495V15.2168C27.7356 14.607 28.2305 14.1122 28.8403 14.1122C29.45 14.1122 29.9449 14.607 29.9449 15.2168V21.1495C29.9449 26.443 26.5382 30 21.47 30H8.47342C3.40527 30 0 26.443 0 21.1495V8.90409C0 3.61059 3.40527 0.0536125 8.47342 0.0536125H13.9805ZM26.8086 1.34768L28.6011 3.14016C29.4745 4.0121 29.9546 5.17125 29.9532 6.40551C29.9532 7.63978 29.473 8.79745 28.6011 9.66792L17.5413 20.7277C16.7297 21.5392 15.6487 21.987 14.4998 21.987H8.98244C8.68492 21.987 8.39919 21.8662 8.19151 21.6527C7.98384 21.4406 7.87043 21.1534 7.87779 20.8544L8.01624 15.2884C8.04423 14.1808 8.49051 13.1395 9.27407 12.3544L20.2823 1.34768C22.0821 -0.449225 25.0087 -0.449225 26.8086 1.34768ZM21.9733 7.9751C20.5386 6.54048 18.2126 6.54054 16.7781 7.97523L10.8368 13.9171C10.4553 14.2986 10.2388 14.8053 10.2255 15.3429L10.2243 15.3943C10.1644 17.7973 12.0961 19.7777 14.4998 19.7777C15.0595 19.7777 15.5838 19.5612 15.98 19.165L21.9736 13.1698C23.4078 11.7352 23.4077 9.40953 21.9733 7.9751ZM21.8435 2.91039C21.343 3.40968 21.3424 4.22038 21.8422 4.72038L25.2248 8.10389C25.7258 8.60505 26.5381 8.60564 27.0398 8.1052C27.4935 7.65156 27.7439 7.04768 27.7439 6.40551C27.7439 5.76187 27.4935 5.15652 27.0398 4.70287L25.2473 2.91039C24.3091 1.97512 22.7832 1.97512 21.8435 2.91039Z" fill="#D9D9D9"/>
<path fill-rule="evenodd" clip-rule="evenodd" d="M13.9805 0.0536125C14.5902 0.0536125 15.0851 0.548497 15.0851 1.15826C15.0851 1.76803 14.5902 2.26292 13.9805 2.26292H8.47342C4.66752 2.26292 2.2093 4.8699 2.2093 8.90409V21.1495C2.2093 25.1837 4.66752 27.7907 8.47342 27.7907H21.47C25.2759 27.7907 27.7356 25.1837 27.7356 21.1495V15.2168C27.7356 14.607 28.2305 14.1122 28.8403 14.1122C29.45 14.1122 29.9449 14.607 29.9449 15.2168V21.1495C29.9449 26.443 26.5382 30 21.47 30H8.47342C3.40527 30 0 26.443 0 21.1495V8.90409C0 3.61059 3.40527 0.0536125 8.47342 0.0536125H13.9805ZM26.8086 1.34768L28.6011 3.14016C29.4745 4.0121 29.9546 5.17125 29.9532 6.40551C29.9532 7.63978 29.473 8.79745 28.6011 9.66792L17.5413 20.7277C16.7297 21.5392 15.6487 21.987 14.4998 21.987H8.98244C8.68492 21.987 8.39919 21.8662 8.19151 21.6527C7.98384 21.4406 7.87043 21.1534 7.87779 20.8544L8.01624 15.2884C8.04423 14.1808 8.49051 13.1395 9.27407 12.3544L20.2823 1.34768C22.0821 -0.449225 25.0087 -0.449225 26.8086 1.34768ZM21.9733 7.9751C20.5386 6.54048 18.2126 6.54054 16.7781 7.97523L10.8368 13.9171C10.4553 14.2986 10.2388 14.8053 10.2255 15.3429L10.2243 15.3943C10.1644 17.7973 12.0961 19.7777 14.4998 19.7777C15.0595 19.7777 15.5838 19.5612 15.98 19.165L21.9736 13.1698C23.4078 11.7352 23.4077 9.40953 21.9733 7.9751ZM21.8435 2.91039C21.343 3.40968 21.3424 4.22038 21.8422 4.72038L25.2248 8.10389C25.7258 8.60505 26.5381 8.60564 27.0398 8.1052C27.4935 7.65156 27.7439 7.04768 27.7439 6.40551C27.7439 5.76187 27.4935 5.15652 27.0398 4.70287L25.2473 2.91039C24.3091 1.97512 22.7832 1.97512 21.8435 2.91039Z" fill="#FF4E59"/>
</svg>
