<svg width="31" height="30" viewBox="0 0 31 30" fill="none" xmlns="http://www.w3.org/2000/svg">
<path fill-rule="evenodd" clip-rule="evenodd" d="M11.9382 18.878L12.1187 18.878L12.5187 18.8791C15.9166 18.8973 23.8763 19.2061 23.8763 24.4568C23.8763 29.3249 17.3391 29.9755 12.254 30L11.3576 29.9996C7.95976 29.9815 0 29.6727 0 24.4234C0 19.4524 6.8125 18.878 11.9382 18.878ZM11.9382 21.1513C5.52578 21.1513 2.27336 22.2531 2.27336 24.4234C2.27336 26.615 5.52578 27.7274 11.9382 27.7274C18.3505 27.7274 21.603 26.6256 21.603 24.4568C21.603 22.2622 18.3505 21.1513 11.9382 21.1513ZM26.0741 8.97022C26.7015 8.97022 27.2107 9.47945 27.2107 10.1069L27.2106 12.0079L29.1748 12.0091C29.8022 12.0091 30.3114 12.5183 30.3114 13.1458C30.3114 13.7732 29.8022 14.2824 29.1748 14.2824L27.2106 14.2812L27.2107 16.1859C27.2107 16.8133 26.7015 17.3225 26.0741 17.3225C25.4466 17.3225 24.9374 16.8133 24.9374 16.1859L24.9372 14.2812L22.9761 14.2824C22.3486 14.2824 21.8394 13.7732 21.8394 13.1458C21.8394 12.5183 22.3486 12.0091 22.9761 12.0091L24.9372 12.0079L24.9374 10.1069C24.9374 9.47945 25.4466 8.97022 26.0741 8.97022ZM11.9382 0C16.3833 0 19.998 3.61616 19.998 8.05981C19.998 12.5035 16.3833 16.1196 11.9382 16.1196H11.8912C9.74058 16.112 7.72487 15.2679 6.21385 13.7462C4.7013 12.2231 3.87229 10.2013 3.87981 8.05527C3.87981 3.61616 7.4945 0 11.9382 0ZM11.9382 2.27336C8.7494 2.27336 6.15318 4.86953 6.15318 8.05981C6.14716 9.60418 6.74127 11.0516 7.8249 12.1443C8.91005 13.2355 10.3559 13.8402 11.8957 13.8463L11.9382 14.9693V13.8463C15.1284 13.8463 17.7246 11.2501 17.7246 8.05981C17.7246 4.86953 15.1284 2.27336 11.9382 2.27336Z" fill="#245D51"/>
</svg>
