<svg width="34" height="30" viewBox="0 0 34 30" fill="none" xmlns="http://www.w3.org/2000/svg">
<path fill-rule="evenodd" clip-rule="evenodd" d="M27.147 18.317C30.3847 18.317 33.0187 20.9377 33.0187 24.1585C33.0187 27.3792 30.3847 30 27.147 30C23.9074 30 21.2715 27.3792 21.2715 24.1585C21.2715 20.9377 23.9074 18.317 27.147 18.317ZM27.147 21.1472C25.4677 21.1472 24.1017 22.4981 24.1017 24.1585C24.1017 25.8208 25.4677 27.1698 27.147 27.1698C28.8243 27.1698 30.1885 25.8208 30.1885 24.1585C30.1885 22.4981 28.8243 21.1472 27.147 21.1472ZM13.3591 22.8166C14.1402 22.8166 14.7742 23.4506 14.7742 24.2317C14.7742 25.0128 14.1402 25.6468 13.3591 25.6468H1.47038C0.689245 25.6468 0.055283 25.0128 0.055283 24.2317C0.055283 23.4506 0.689245 22.8166 1.47038 22.8166H13.3591ZM5.87358 0C9.11321 0 11.7472 2.62264 11.7472 5.8434C11.7472 9.06415 9.11321 11.683 5.87358 11.683C2.63585 11.683 0 9.06415 0 5.8434C0 2.62264 2.63585 0 5.87358 0ZM5.87358 2.83019C4.19623 2.83019 2.83019 4.18113 2.83019 5.8434C2.83019 7.50377 4.19623 8.85283 5.87358 8.85283C7.55283 8.85283 8.91698 7.50377 8.91698 5.8434C8.91698 4.18113 7.55283 2.83019 5.87358 2.83019ZM30.5492 4.52906C31.3304 4.52906 31.9643 5.16302 31.9643 5.94415C31.9643 6.72528 31.3304 7.35925 30.5492 7.35925H18.6625C17.8813 7.35925 17.2474 6.72528 17.2474 5.94415C17.2474 5.16302 17.8813 4.52906 18.6625 4.52906H30.5492Z" fill="#245D51"/>
</svg>
