<svg width="153" height="9" viewBox="0 0 153 9" fill="none" xmlns="http://www.w3.org/2000/svg">
<path fill-rule="evenodd" clip-rule="evenodd" d="M152.134 1.85702C151.512 0.97199 146.176 0.599347 130.14 0.288811C115.176 -0.0061977 98.6839 -0.176989 68.248 0.288815C44.9835 0.645931 15.0873 1.39122 15.0873 2.18308C15.0873 2.75757 16.2166 2.7731 27.0019 2.26072C36.9684 1.79491 42.0787 1.68622 48.3183 1.56201C23.3033 2.7731 17.9671 3.56497 4.64081 4.32579C-3.71636 4.80712 1.16807 6.189 4.2173 6.04926C4.24554 6.04926 43.1233 4.31026 46.7937 4.40342C47.1325 4.41895 43.4339 4.69843 38.5495 5.02449C24.9126 5.9561 27.5383 7.50862 37.7589 6.79439C72.1475 4.38774 105.209 7.14833 130.14 8.18862C138.017 8.51469 138.186 5.00881 138.186 4.60511C138.186 3.89088 136.04 3.3476 132.681 3.23891C127.429 3.05259 111.025 4.24606 98.0661 2.36925C101.471 6.79439 98.0661 6.79439 98.3202 2.02781C102.047 1.82597 131.636 1.98108 143.268 2.19845C151.823 2.35372 152.444 2.33835 152.134 1.85702Z" fill="#D9D9D9"/>
<path fill-rule="evenodd" clip-rule="evenodd" d="M152.134 1.85702C151.512 0.97199 146.176 0.599347 130.14 0.288811C115.176 -0.0061977 98.6839 -0.176989 68.248 0.288815C44.9835 0.645931 15.0873 1.39122 15.0873 2.18308C15.0873 2.75757 16.2166 2.7731 27.0019 2.26072C36.9684 1.79491 42.0787 1.68622 48.3183 1.56201C23.3033 2.7731 17.9671 3.56497 4.64081 4.32579C-3.71636 4.80712 1.16807 6.189 4.2173 6.04926C4.24554 6.04926 43.1233 4.31026 46.7937 4.40342C47.1325 4.41895 43.4339 4.69843 38.5495 5.02449C24.9126 5.9561 27.5383 7.50862 37.7589 6.79439C72.1475 4.38774 105.209 7.14833 130.14 8.18862C138.017 8.51469 138.186 5.00881 138.186 4.60511C138.186 3.89088 136.04 3.3476 132.681 3.23891C127.429 3.05259 111.025 4.24606 98.0661 2.36925C101.471 6.79439 98.0661 6.79439 98.3202 2.02781C102.047 1.82597 131.636 1.98108 143.268 2.19845C151.823 2.35372 152.444 2.33835 152.134 1.85702Z" fill="#FF4E59"/>
</svg>
