<svg width="263" height="7" viewBox="0 0 263 7" fill="none" xmlns="http://www.w3.org/2000/svg">
<path fill-rule="evenodd" clip-rule="evenodd" d="M262.897 1.58333C261.824 0.828737 252.602 0.511015 224.89 0.246246C199.031 -0.00528427 170.533 -0.150904 117.937 0.246249C77.7345 0.550733 26.0718 1.18618 26.0718 1.86134C26.0718 2.35116 28.0234 2.3644 46.6611 1.92753C63.8839 1.53038 72.7148 1.43771 83.4973 1.3318C40.2696 2.3644 31.0484 3.03956 8.01963 3.68825C-6.42213 4.09864 2.0185 5.27686 7.28779 5.15771C7.33658 5.15771 74.52 3.67501 80.8627 3.75444C81.4482 3.76768 75.0567 4.00597 66.6161 4.28398C43.0507 5.07828 47.5881 6.40199 65.25 5.79303C124.676 3.74107 181.809 6.0948 224.89 6.98177C238.502 7.25978 238.795 4.2706 238.795 3.9264C238.795 3.31743 235.087 2.85422 229.281 2.76155C220.206 2.60269 191.86 3.62027 169.465 2.02007C175.348 5.79303 169.465 5.79303 169.904 1.72895C176.344 1.55685 227.476 1.6891 247.577 1.87444C262.36 2.00683 263.434 1.99372 262.897 1.58333Z" fill="#D9D9D9"/>
<path fill-rule="evenodd" clip-rule="evenodd" d="M262.897 1.58333C261.824 0.828737 252.602 0.511015 224.89 0.246246C199.031 -0.00528427 170.533 -0.150904 117.937 0.246249C77.7345 0.550733 26.0718 1.18618 26.0718 1.86134C26.0718 2.35116 28.0234 2.3644 46.6611 1.92753C63.8839 1.53038 72.7148 1.43771 83.4973 1.3318C40.2696 2.3644 31.0484 3.03956 8.01963 3.68825C-6.42213 4.09864 2.0185 5.27686 7.28779 5.15771C7.33658 5.15771 74.52 3.67501 80.8627 3.75444C81.4482 3.76768 75.0567 4.00597 66.6161 4.28398C43.0507 5.07828 47.5881 6.40199 65.25 5.79303C124.676 3.74107 181.809 6.0948 224.89 6.98177C238.502 7.25978 238.795 4.2706 238.795 3.9264C238.795 3.31743 235.087 2.85422 229.281 2.76155C220.206 2.60269 191.86 3.62027 169.465 2.02007C175.348 5.79303 169.465 5.79303 169.904 1.72895C176.344 1.55685 227.476 1.6891 247.577 1.87444C262.36 2.00683 263.434 1.99372 262.897 1.58333Z" fill="#FF4E59"/>
</svg>
