<svg width="319" height="18" viewBox="0 0 319 18" fill="none" xmlns="http://www.w3.org/2000/svg">
<path fill-rule="evenodd" clip-rule="evenodd" d="M318.875 3.89235C317.573 2.03731 306.389 1.25624 272.775 0.605355C241.411 -0.0129905 206.844 -0.370972 143.049 0.605363C94.2863 1.35389 31.6232 2.91602 31.6232 4.57579C31.6232 5.77993 33.9904 5.81248 56.5965 4.73851C77.4865 3.76217 88.1978 3.53436 101.276 3.274C48.8442 5.81247 37.6594 7.47226 9.72723 9.06694C-7.78957 10.0758 2.44829 12.9723 8.83956 12.6794C8.89874 12.6794 90.3874 9.0344 98.0806 9.22966C98.7907 9.26221 91.0384 9.84801 80.8005 10.5314C52.2173 12.4841 57.7209 15.7382 79.1435 14.2412C151.223 9.1968 220.521 14.9831 272.775 17.1635C289.286 17.847 289.641 10.4986 289.641 9.65241C289.641 8.15536 285.144 7.01663 278.101 6.78882C267.094 6.39829 232.712 8.89983 205.549 4.966C212.685 14.2412 205.549 14.2412 206.081 4.25034C213.893 3.82726 275.912 4.15238 300.293 4.60801C318.224 4.93345 319.526 4.90123 318.875 3.89235Z" fill="#D9D9D9"/>
<path fill-rule="evenodd" clip-rule="evenodd" d="M318.875 3.89235C317.573 2.03731 306.389 1.25624 272.775 0.605355C241.411 -0.0129905 206.844 -0.370972 143.049 0.605363C94.2863 1.35389 31.6232 2.91602 31.6232 4.57579C31.6232 5.77993 33.9904 5.81248 56.5965 4.73851C77.4865 3.76217 88.1978 3.53436 101.276 3.274C48.8442 5.81247 37.6594 7.47226 9.72723 9.06694C-7.78957 10.0758 2.44829 12.9723 8.83956 12.6794C8.89874 12.6794 90.3874 9.0344 98.0806 9.22966C98.7907 9.26221 91.0384 9.84801 80.8005 10.5314C52.2173 12.4841 57.7209 15.7382 79.1435 14.2412C151.223 9.1968 220.521 14.9831 272.775 17.1635C289.286 17.847 289.641 10.4986 289.641 9.65241C289.641 8.15536 285.144 7.01663 278.101 6.78882C267.094 6.39829 232.712 8.89983 205.549 4.966C212.685 14.2412 205.549 14.2412 206.081 4.25034C213.893 3.82726 275.912 4.15238 300.293 4.60801C318.224 4.93345 319.526 4.90123 318.875 3.89235Z" fill="#FF4E59"/>
</svg>
