<svg width="181" height="50" viewBox="0 0 181 50" fill="none" xmlns="http://www.w3.org/2000/svg">
<path d="M80.2683 36V15H93.4383V18.66H83.9283V22.92H91.4733V26.58H83.9283V32.34H93.4383V36H80.2683ZM107.516 13.5H111.176V36H107.516V34.125C107.036 34.795 106.431 35.34 105.701 35.76C104.971 36.18 104.126 36.39 103.166 36.39C102.076 36.39 101.056 36.185 100.106 35.775C99.1565 35.365 98.3165 34.8 97.5865 34.08C96.8665 33.35 96.3015 32.51 95.8915 31.56C95.4815 30.61 95.2765 29.59 95.2765 28.5C95.2765 27.41 95.4815 26.39 95.8915 25.44C96.3015 24.49 96.8665 23.655 97.5865 22.935C98.3165 22.205 99.1565 21.635 100.106 21.225C101.056 20.815 102.076 20.61 103.166 20.61C104.126 20.61 104.971 20.82 105.701 21.24C106.431 21.65 107.036 22.195 107.516 22.875V13.5ZM103.211 32.865C103.991 32.865 104.681 32.67 105.281 32.28C105.881 31.89 106.351 31.365 106.691 30.705C107.031 30.035 107.201 29.3 107.201 28.5C107.201 27.69 107.031 26.955 106.691 26.295C106.351 25.625 105.876 25.095 105.266 24.705C104.666 24.315 103.981 24.12 103.211 24.12C102.441 24.12 101.736 24.32 101.096 24.72C100.466 25.11 99.9615 25.635 99.5815 26.295C99.2115 26.955 99.0265 27.69 99.0265 28.5C99.0265 29.31 99.2165 30.045 99.5965 30.705C99.9765 31.365 100.481 31.89 101.111 32.28C101.751 32.67 102.451 32.865 103.211 32.865ZM114.18 30.45V21H117.84V29.49C117.84 30.08 117.985 30.62 118.275 31.11C118.565 31.59 118.95 31.975 119.43 32.265C119.92 32.545 120.455 32.685 121.035 32.685C121.635 32.685 122.175 32.545 122.655 32.265C123.135 31.975 123.52 31.59 123.81 31.11C124.1 30.62 124.245 30.08 124.245 29.49V21H127.905L127.92 36H124.26L124.245 34.635C123.725 35.175 123.11 35.605 122.4 35.925C121.69 36.235 120.93 36.39 120.12 36.39C119.03 36.39 118.035 36.125 117.135 35.595C116.235 35.055 115.515 34.34 114.975 33.45C114.445 32.55 114.18 31.55 114.18 30.45ZM139.988 31.485L143.288 33.27C142.598 34.21 141.733 34.965 140.693 35.535C139.653 36.105 138.518 36.39 137.288 36.39C135.908 36.39 134.648 36.035 133.508 35.325C132.378 34.615 131.473 33.665 130.793 32.475C130.123 31.275 129.788 29.95 129.788 28.5C129.788 27.4 129.983 26.375 130.373 25.425C130.763 24.465 131.298 23.625 131.978 22.905C132.668 22.175 133.468 21.605 134.378 21.195C135.288 20.785 136.258 20.58 137.288 20.58C138.518 20.58 139.653 20.865 140.693 21.435C141.733 22.005 142.598 22.77 143.288 23.73L139.988 25.5C139.638 25.1 139.223 24.79 138.743 24.57C138.273 24.35 137.788 24.24 137.288 24.24C136.568 24.24 135.918 24.44 135.338 24.84C134.758 25.23 134.298 25.75 133.958 26.4C133.618 27.04 133.448 27.74 133.448 28.5C133.448 29.25 133.618 29.95 133.958 30.6C134.298 31.24 134.758 31.755 135.338 32.145C135.918 32.535 136.568 32.73 137.288 32.73C137.808 32.73 138.303 32.62 138.773 32.4C139.243 32.17 139.648 31.865 139.988 31.485ZM156.822 21H160.482V36H156.822L156.657 34.14C156.247 34.81 155.702 35.355 155.022 35.775C154.352 36.185 153.557 36.39 152.637 36.39C151.527 36.39 150.487 36.18 149.517 35.76C148.547 35.34 147.692 34.76 146.952 34.02C146.222 33.28 145.647 32.425 145.227 31.455C144.817 30.485 144.612 29.445 144.612 28.335C144.612 27.265 144.807 26.26 145.197 25.32C145.597 24.38 146.152 23.555 146.862 22.845C147.572 22.135 148.392 21.58 149.322 21.18C150.252 20.78 151.252 20.58 152.322 20.58C153.312 20.58 154.197 20.8 154.977 21.24C155.767 21.68 156.437 22.24 156.987 22.92L156.822 21ZM152.547 32.865C153.327 32.865 154.017 32.67 154.617 32.28C155.217 31.89 155.687 31.365 156.027 30.705C156.367 30.035 156.537 29.3 156.537 28.5C156.537 27.69 156.367 26.955 156.027 26.295C155.687 25.625 155.212 25.095 154.602 24.705C154.002 24.315 153.317 24.12 152.547 24.12C151.777 24.12 151.072 24.32 150.432 24.72C149.802 25.11 149.297 25.635 148.917 26.295C148.547 26.955 148.362 27.69 148.362 28.5C148.362 29.31 148.552 30.045 148.932 30.705C149.312 31.365 149.817 31.89 150.447 32.28C151.087 32.67 151.787 32.865 152.547 32.865ZM174.518 13.5H178.178V36H174.518V34.125C174.038 34.795 173.433 35.34 172.703 35.76C171.973 36.18 171.128 36.39 170.168 36.39C169.078 36.39 168.058 36.185 167.108 35.775C166.158 35.365 165.318 34.8 164.588 34.08C163.868 33.35 163.303 32.51 162.893 31.56C162.483 30.61 162.278 29.59 162.278 28.5C162.278 27.41 162.483 26.39 162.893 25.44C163.303 24.49 163.868 23.655 164.588 22.935C165.318 22.205 166.158 21.635 167.108 21.225C168.058 20.815 169.078 20.61 170.168 20.61C171.128 20.61 171.973 20.82 172.703 21.24C173.433 21.65 174.038 22.195 174.518 22.875V13.5ZM170.213 32.865C170.993 32.865 171.683 32.67 172.283 32.28C172.883 31.89 173.353 31.365 173.693 30.705C174.033 30.035 174.203 29.3 174.203 28.5C174.203 27.69 174.033 26.955 173.693 26.295C173.353 25.625 172.878 25.095 172.268 24.705C171.668 24.315 170.983 24.12 170.213 24.12C169.443 24.12 168.738 24.32 168.098 24.72C167.468 25.11 166.963 25.635 166.583 26.295C166.213 26.955 166.028 27.69 166.028 28.5C166.028 29.31 166.218 30.045 166.598 30.705C166.978 31.365 167.483 31.89 168.113 32.28C168.753 32.67 169.453 32.865 170.213 32.865Z" fill="#161B2D"/>
<path d="M31.5405 26.6521L45.018 43.1947C45.018 43.1947 25.2072 37.8884 12.9791 50.0002C3.43583 37.6363 0 31.859 0 31.859C0 31.859 10.3075 19.2564 31.5405 26.6521Z" fill="#D9D9D9"/>
<path d="M31.5405 26.6521L45.018 43.1947C45.018 43.1947 25.2072 37.8884 12.9791 50.0002C3.43583 37.6363 0 31.859 0 31.859C0 31.859 10.3075 19.2564 31.5405 26.6521Z" fill="#FF4E59"/>
<path d="M34.2653 25.4582L47.3639 41.8084C47.3639 41.8084 52.9663 28.5425 73.4683 29.2655C60.8414 15.8205 56.854 11.5489 56.854 11.5489C56.854 11.5489 36.7707 11.7943 34.2653 25.4582Z" fill="#245D51"/>
<path d="M30.0785 23.2362C30.0785 23.2362 11.6898 16.9149 1.86084 26.6123C4.7783 19.7273 8.89864 17.1272 13.9826 15.469C19.0666 13.8107 19.9637 12.8158 19.2261 7.50941C19.0309 5.65503 18.1164 3.95051 16.6782 2.7605C15.24 1.57048 13.3923 0.989472 11.5303 1.14177C16.8668 -2.24104 31.1485 3.85465 30.0785 23.2362Z" fill="#161B2D"/>
<path d="M13.5241 6.39508C14.2344 6.39377 14.9291 6.60289 15.5203 6.99596C16.1115 7.38903 16.5725 7.94836 16.8449 8.60312C17.1174 9.25788 17.189 9.9786 17.0507 10.674C16.9125 11.3694 16.5706 12.0083 16.0683 12.5096C15.566 13.0109 14.9259 13.3522 14.2292 13.4902C13.5324 13.6282 12.8103 13.5567 12.1543 13.2847C11.4983 13.0128 10.9379 12.5527 10.5441 11.9627C10.1502 11.3726 9.94071 10.6792 9.94202 9.97024C9.94202 9.02205 10.3194 8.1127 10.9912 7.44222C11.6629 6.77175 12.574 6.39508 13.5241 6.39508Z" fill="#245D51"/>
<path d="M31.4941 22.3407C31.4941 22.3407 32.4909 3.93425 21.479 0.511643C29.7064 -1.591 34.1058 3.23779 35.96 6.84612C37.8141 10.4544 40.3661 9.93708 44.5994 8.17271C48.8327 6.40834 52.654 6.84612 54.98 10.2488C47.3507 9.35338 37.6812 12.6234 31.4941 22.3407Z" fill="#D9D9D9"/>
<path d="M31.4941 22.3407C31.4941 22.3407 32.4909 3.93425 21.479 0.511643C29.7064 -1.591 34.1058 3.23779 35.96 6.84612C37.8141 10.4544 40.3661 9.93708 44.5994 8.17271C48.8327 6.40834 52.654 6.84612 54.98 10.2488C47.3507 9.35338 37.6812 12.6234 31.4941 22.3407Z" fill="#FF4E59"/>
<path d="M40.1999 7.34359C42.1745 7.34359 43.7753 5.74591 43.7753 3.77506C43.7753 1.80421 42.1745 0.206528 40.1999 0.206528C38.2253 0.206528 36.6245 1.80421 36.6245 3.77506C36.6245 5.74591 38.2253 7.34359 40.1999 7.34359Z" fill="#161B2D"/>
</svg>
