<svg width="88" height="93" viewBox="0 0 88 93" fill="none" xmlns="http://www.w3.org/2000/svg">
<g opacity="0.2">
<path d="M9.58406 6.38011C14.1743 9.60843 18.4114 8.75101 23.6069 3.45455C27.7937 -0.782609 30.8707 -1.08537 34.7548 2.34472C41.0096 7.84294 45.6504 8.7508 49.8875 5.27028C54.73 1.28532 55.5875 0.7807 57.6557 0.7807C60.0265 0.7807 61.338 1.43655 63.0026 3.40381C67.4415 8.64982 72.1831 8.85159 77.8831 3.90823C83.5831 -1.03512 90.8468 0.427804 85.853 5.52249C79.4972 11.9791 69.4592 13.6943 61.338 9.65887L57.7061 7.84264L54.5282 9.4569C48.6769 12.4834 37.2264 11.6258 31.8291 7.84264L30.4672 6.88453L28.0459 8.59927C20.2778 14.0975 0 12.5844 0 6.53134C0 4.00922 6.05309 3.90843 9.58406 6.38011Z" fill="#075F33"/>
<path d="M22.9734 29.8473C26.6104 26.7368 28.7527 25.2922 35.927 30.1801C42.6531 34.7348 44.8452 34.6237 51.8203 29.3469C55.9057 26.2365 57.5 26.2918 63.5783 29.6802C70.6031 33.6239 75.9839 33.6239 78.176 29.6802C79.9198 26.5695 87.3433 26.3477 87.3433 29.458C87.3433 35.7901 70.8024 39.4561 61.8843 35.068L57.5498 32.9573L55.1584 34.6237C48.7812 38.9562 39.3648 39.1228 32.041 34.9569L29.4502 33.4578L25.5143 35.4569C15.9984 40.2893 4.93788 40.1788 0.802665 35.1241C-1.28985 32.5135 4.19055 31.5131 8.67451 33.6239C12.6104 35.5124 17.9912 34.1243 22.9734 29.8473Z" fill="#075F33"/>
<path d="M9.58406 60.3801C14.1743 63.6084 18.4114 62.751 23.6069 57.4546C27.7937 53.2174 30.8707 52.9146 34.7548 56.3447C41.0096 61.8429 45.6504 62.7508 49.8875 59.2703C54.73 55.2853 55.5875 54.7807 57.6557 54.7807C60.0265 54.7807 61.338 55.4366 63.0026 57.4038C67.4415 62.6498 72.1831 62.8516 77.8831 57.9082C83.5831 52.9649 90.8468 54.4278 85.853 59.5225C79.4972 65.9791 69.4592 67.6943 61.338 63.6589L57.7061 61.8426L54.5282 63.4569C48.6769 66.4834 37.2264 65.6258 31.8291 61.8426L30.4672 60.8845L28.0459 62.5993C20.2778 68.0975 0 66.5844 0 60.5313C0 58.0092 6.05309 57.9084 9.58406 60.3801Z" fill="#075F33"/>
<path d="M22.6301 83.8473C26.2671 80.7368 28.4094 79.2922 35.5838 84.1801C42.3098 88.7348 44.502 88.6237 51.477 83.3469C55.5624 80.2365 57.1567 80.2918 63.235 83.6802C70.2599 87.6239 75.6406 87.6239 77.8328 83.6802C79.5766 80.5695 87 80.3477 87 83.458C87 89.7901 70.4592 93.4561 61.541 89.068L57.2065 86.9573L54.8151 88.6237C48.4379 92.9562 39.0216 93.1228 31.6978 88.9569L29.1069 87.4578L25.1711 89.4569C15.6551 94.2893 4.59461 94.1788 0.459404 89.1241C-1.63311 86.5135 3.84729 85.5131 8.33125 87.6239C12.2672 89.5124 17.6479 88.1243 22.6301 83.8473Z" fill="#075F33"/>
</g>
</svg>
