<svg width="51" height="50" viewBox="0 0 51 50" fill="none" xmlns="http://www.w3.org/2000/svg">
<path d="M50.6543 13.8281C49.8537 6.04045 43.3037 0 35.3706 0C31.586 0 28.0927 1.38294 25.4 3.63898C22.7072 1.38294 19.2134 0 15.4293 0C6.91406 0 0 6.91393 0 15.4293C0 23.9446 6.91393 30.8585 15.4293 30.8585C16.6665 30.8585 17.831 30.7128 18.9956 30.422L6.6232 47.8163L9.67995 49.9998L25.7642 27.4381C28.3843 29.5485 31.7324 30.8588 35.4439 30.8588C36.6811 30.8588 37.8457 30.7131 39.0103 30.4222L26.6379 47.8165L29.6946 50C29.6946 50 47.8895 24.5271 48.3262 23.7993C50.1457 21.0336 50.8737 18.2682 50.8737 15.43C50.7275 14.8476 50.6543 14.3373 50.6543 13.8281ZM47.3794 15.4293C47.3794 22.0523 41.9936 27.5108 35.2978 27.5108C32.3869 27.5108 29.6937 26.4919 27.5833 24.7451C24.9633 22.5615 23.2163 19.2139 23.2163 15.5019C23.2163 11.7903 24.9631 8.4423 27.6559 6.18614C29.7662 4.4393 32.3863 3.42038 35.2978 3.42038C41.9209 3.42038 47.3794 8.8062 47.3794 15.4293Z" fill="#245D51"/>
</svg>
