<svg width="33" height="33" viewBox="0 0 33 33" fill="none" xmlns="http://www.w3.org/2000/svg">
<path opacity="0.5" d="M30.1526 11.6138C31.1182 14.3132 31.2621 17.2383 30.5661 20.0195C29.8701 22.8006 28.3654 25.313 26.2422 27.2393C24.1189 29.1655 21.4725 30.4191 18.6371 30.8416C15.8018 31.2642 12.9048 30.8367 10.3123 29.6133C7.71978 28.3899 5.54803 26.4253 4.07147 23.968C2.59491 21.5106 1.8798 18.6707 2.0165 15.807C2.1532 12.9433 3.13558 10.1844 4.8395 7.87891C6.54342 5.5734 8.89242 3.82473 11.5897 2.85386C13.3837 2.20962 15.287 1.92516 17.1909 2.01676C19.0948 2.10836 20.962 2.57421 22.6858 3.38771C24.4097 4.2012 25.9564 5.34639 27.2375 6.75786C28.5187 8.16933 29.5093 9.81941 30.1526 11.6138Z" stroke="#245D51" stroke-width="2.16" stroke-linecap="round" stroke-linejoin="round"/>
</svg>
