<svg width="25" height="25" viewBox="0 0 25 25" fill="none" xmlns="http://www.w3.org/2000/svg">
<path fill-rule="evenodd" clip-rule="evenodd" d="M12.5001 2.02698C12.3835 2.02698 12.0963 2.06076 11.9437 2.38237L9.60263 7.31604C9.23211 8.09575 8.518 8.63763 7.69234 8.76195L2.45122 9.55787C2.10506 9.61058 1.98711 9.88084 1.95121 9.99435C1.91916 10.1038 1.86788 10.3822 2.10634 10.6227L5.89615 14.4605C6.50001 15.0726 6.77437 15.955 6.63078 16.8185L5.73846 22.2373C5.68333 22.5765 5.88461 22.7738 5.97436 22.8413C6.06923 22.917 6.32308 23.067 6.63719 22.894L11.3232 20.3333C12.0616 19.9319 12.9412 19.9319 13.6771 20.3333L18.3618 22.8927C18.6772 23.0643 18.931 22.9143 19.0272 22.8413C19.1169 22.7738 19.3182 22.5765 19.2631 22.2373L18.3682 16.8185C18.2246 15.955 18.4989 15.0726 19.1028 14.4605L22.8926 10.6227C23.1324 10.3822 23.0811 10.1025 23.0477 9.99435C23.0131 9.88084 22.8952 9.61058 22.549 9.55787L17.3079 8.76195C16.4835 8.63763 15.7694 8.09575 15.3989 7.31469L13.0553 2.38237C12.904 2.06076 12.6168 2.02698 12.5001 2.02698ZM6.34232 24.9994C5.81282 24.9994 5.28717 24.8237 4.83716 24.4778C4.06022 23.8778 3.67945 22.8873 3.84483 21.89L4.73716 16.4712C4.77049 16.2699 4.70511 16.0658 4.56408 15.9226L0.774266 12.0848C0.076817 11.3808 -0.173188 10.3403 0.12169 9.3741C0.419131 8.39709 1.20632 7.69846 2.17685 7.55252L7.41798 6.75659C7.62054 6.72686 7.79491 6.59579 7.88209 6.4093L10.2244 1.47429C10.6565 0.564851 11.5283 0 12.5001 0C13.4719 0 14.3437 0.564851 14.7758 1.47429L17.1194 6.40795C17.2079 6.59579 17.381 6.72686 17.5823 6.75659L22.8234 7.55252C23.7939 7.69846 24.5811 8.39709 24.8785 9.3741C25.1734 10.3403 24.9221 11.3808 24.2247 12.0848L20.4349 15.9226C20.2938 16.0658 20.2297 16.2699 20.2631 16.4699L21.1567 21.89C21.3208 22.8886 20.94 23.8791 20.1618 24.4778C19.3733 25.0872 18.3464 25.1697 17.4759 24.6913L12.7924 22.1332C12.6091 22.0332 12.3899 22.0332 12.2065 22.1332L7.52311 24.6926C7.14874 24.898 6.74489 24.9994 6.34232 24.9994Z" fill="white"/>
</svg>
