<svg width="112" height="80" viewBox="0 0 112 80" fill="none" xmlns="http://www.w3.org/2000/svg">
<g opacity="0.2">
<path d="M2.39779 51.4773C0.093793 54.0213 1.24584 58.3893 5.32584 62.2293C11.758 68.3733 15.982 67.4613 17.134 59.6373C17.902 54.5013 5.75779 47.7332 2.39779 51.4773ZM12.526 61.3648C11.614 62.0848 10.27 61.9888 9.45399 61.1248C9.35798 60.9808 4.41398 55.9893 6.66998 53.7813C7.62998 52.8213 8.06199 52.8213 9.35799 53.8773C12.862 56.7093 14.158 58.3408 12.526 61.3648Z" fill="#245D51"/>
<path d="M64.0299 12.4053C68.2539 15.9573 78.3819 10.6293 78.3819 4.86927C78.3819 1.74927 72.0939 -0.36273 68.7819 1.70127C62.9739 5.25327 60.9579 9.81327 64.0299 12.4053ZM70.5099 4.62927C73.0539 2.37327 74.0619 2.61327 74.0619 4.24527C74.0619 5.78127 71.1339 9.04527 68.6859 10.2933C65.5659 11.9253 66.5259 8.13327 70.5099 4.62927Z" fill="#245D51"/>
<path d="M4.51006 36.2133C8.68596 37.3653 16.654 29.7808 14.254 27.0448C11.47 23.9248 6.90996 23.1093 4.89396 25.3173C-0.770035 31.4613 -0.865937 34.7253 4.51006 36.2133ZM4.94201 30.7413C7.48601 26.6613 9.11796 26.2288 10.51 27.2848C11.278 27.8608 10.51 29.4933 8.20596 31.6533C7.00592 32.7573 5.18201 34.5813 4.22201 33.8613C3.21401 33.1893 4.03001 32.1813 4.94201 30.7413Z" fill="#245D51"/>
<path d="M83.038 53.2533C77.182 57.2373 76.414 66.9333 81.982 66.9333C85.822 66.9333 93.262 59.4933 93.262 55.6533C93.262 52.1493 86.878 50.6133 83.038 53.2533ZM81.694 64.5333C81.214 64.4853 82.6539 60.2133 84.0459 57.4773C85.5819 54.5013 88.51 52.8688 89.182 54.6448C89.758 55.9408 84.862 64.7253 81.694 64.5333Z" fill="#245D51"/>
<path d="M62.11 32.8053C58.174 36.7413 65.902 49.1737 72.286 49.1737C76.558 49.1737 79.438 40.1493 76.462 36.0213C73.534 31.9893 64.846 30.0213 62.11 32.8053ZM71.182 45.0938C70.03 45.8138 65.422 38.7098 65.422 36.2138C65.422 33.5258 68.782 32.9973 71.086 35.3973C73.63 38.0373 73.678 43.5098 71.182 45.0938Z" fill="#245D51"/>
<path d="M103.917 23.1573C102.957 22.8693 101.422 22.1493 100.51 21.5253C98.254 19.9893 95.518 19.9413 94.51 21.4773C91.198 26.6613 93.358 32.1333 100.51 36.7413C106.51 40.5813 109.774 39.4298 111.07 33.0938C111.982 28.4378 109.245 24.6933 103.917 23.1573ZM104.59 33.2373C104.302 34.0053 103.39 34.1978 102.766 33.6698L101.277 32.2773C97.1015 28.3413 96.094 22.7738 99.502 22.7738C100.702 22.7738 100.894 22.9173 100.414 23.4453C99.982 23.9733 100.366 24.5498 102.526 26.3738C105.502 28.8218 105.79 29.9253 104.59 33.2373Z" fill="#245D51"/>
<path d="M50.8775 59.7813C48.9575 59.0613 47.614 59.1573 46.414 60.1173C40.99 64.5333 41.374 78.5973 46.894 79.0293C55.486 79.6533 58.9415 62.8053 50.8775 59.7813ZM47.47 74.1333C46.75 73.4133 47.038 69.3333 48.094 66.2613C49.63 61.8453 50.7815 61.0293 51.5975 63.8613C52.3175 66.4533 48.766 75.3813 47.47 74.1333Z" fill="#245D51"/>
<path d="M37.8219 13.6533C38.8779 10.2453 30.1419 6.02126 27.5979 8.75726C24.7659 11.8293 21.9339 18.5493 22.5579 20.9013C23.9019 26.0373 35.6619 20.4693 37.8219 13.6533ZM26.2059 20.6613C24.7179 19.6053 28.2219 14.9493 29.9019 12.3573C31.5819 9.76526 33.2619 9.86126 33.2619 12.5013C33.2619 13.3173 27.6939 21.6693 26.2059 20.6613Z" fill="#245D51"/>
<path d="M32.5419 35.4453C27.9339 37.5093 24.0459 46.7253 26.6859 49.3653C30.4779 53.1573 37.9659 49.8933 41.7099 42.8373C43.7259 38.9973 36.8619 33.4773 32.5419 35.4453ZM34.4139 45.5738C30.3819 49.4138 28.7019 46.9173 30.4779 43.5573C32.9259 38.9493 37.2459 36.5013 37.7259 39.7173C37.9179 40.9653 36.8139 43.2698 34.4139 45.5738Z" fill="#245D51"/>
</g>
</svg>
