<svg width="25" height="30" viewBox="0 0 25 30" fill="none" xmlns="http://www.w3.org/2000/svg">
<path fill-rule="evenodd" clip-rule="evenodd" d="M23.3721 12.2803C23.9512 12.2803 24.4186 12.7492 24.4186 13.3268C24.4186 19.7345 19.5005 25.0095 13.2562 25.5445L13.2558 28.9535C13.2558 29.5312 12.787 30 12.2093 30C11.6316 30 11.1628 29.5312 11.1628 28.9535L11.1638 25.5446C4.91879 25.0103 0 19.735 0 13.3268C0 12.7492 0.468837 12.2803 1.04651 12.2803C1.62558 12.2803 2.09302 12.7492 2.09302 13.3268C2.09302 18.9333 6.6307 23.4961 12.2093 23.4961C17.7879 23.4961 22.3256 18.9333 22.3256 13.3268C22.3256 12.7492 22.7944 12.2803 23.3721 12.2803ZM12.2093 0C15.9112 0 18.9237 3.02372 18.9237 6.74093V13.2823C18.9237 16.9981 15.9112 20.0219 12.2093 20.0219C8.50744 20.0219 5.49488 16.9981 5.49488 13.2823V6.74093C5.49488 3.02372 8.50744 0 12.2093 0ZM12.2093 2.09302C9.6614 2.09302 7.58791 4.17767 7.58791 6.74093V13.2823C7.58791 15.8428 9.6614 17.9288 12.2093 17.9288C14.7572 17.9288 16.8307 15.8428 16.8307 13.2823V6.74093C16.8307 4.17767 14.7572 2.09302 12.2093 2.09302Z" fill="#245D51"/>
</svg>
